# xmcd
#
# Track frame offsets:
#	150
#	19784
#	33279
#	54280
#	104835
#	137474
#	163839
#	191525
#	233299
#	272553
#	298970
#	338410
#
# Disc length: 4679 seconds
#
# Revision: 1
# Processed by: cddbd v1.5.2PL0 Copyright (c) Steve Scherf et al.
# Submitted via: audiograbber 1.83.01
#
DISCID=9f12450c
DTITLE=Georg Markus - Die Enkel der Tante Jolesch
DYEAR=1900
DGENRE=
TTITLE0=Nicht vom langlebigen Teil der Familie
TTITLE1=Des Teuferls General
TTITLE2=Bis der Bub in Pension gehen kann
TTITLE3=Was verlangst Du von mir Beses, Bruder
TTITLE4=Ich hab schon wieder ein Geschäft
TTITLE5=Der zweitlästigste Tapezierer
TTITLE6=Was heißt Schlapfen auf Englisch
TTITLE7=Das Stück hat ka Gaderober g'schrieben
TTITLE8=Leute die sich Operetten anschauen, glauben alles
TTITLE9=Der Bär und die Frühlingsrolle
TTITLE10=Cincinnati-Street
TTITLE11=Sehr geehrter Herr Kraus
EXTD=
EXTT0=
EXTT1=
EXTT2=
EXTT3=
EXTT4=
EXTT5=
EXTT6=
EXTT7=
EXTT8=
EXTT9=
EXTT10=
EXTT11=
PLAYORDER=
